<?xml version="1.0" standalone="no"?><svg xmlns="http://www.w3.org/2000/svg" viewBox="0 0 1440 320"><path fill="#0099ff" fill-opacity="1" d="M0,160L18.5,149.3C36.9,139,74,117,111,138.7C147.7,160,185,224,222,256C258.5,288,295,288,332,266.7C369.2,245,406,203,443,154.7C480,107,517,53,554,37.3C590.8,21,628,43,665,64C701.5,85,738,107,775,133.3C812.3,160,849,192,886,181.3C923.1,171,960,117,997,128C1033.8,139,1071,213,1108,245.3C1144.6,277,1182,267,1218,240C1255.4,213,1292,171,1329,176C1366.2,181,1403,235,1422,261.3L1440,288L1440,0L1421.5,0C1403.1,0,1366,0,1329,0C1292.3,0,1255,0,1218,0C1181.5,0,1145,0,1108,0C1070.8,0,1034,0,997,0C960,0,923,0,886,0C849.2,0,812,0,775,0C738.5,0,702,0,665,0C627.7,0,591,0,554,0C516.9,0,480,0,443,0C406.2,0,369,0,332,0C295.4,0,258,0,222,0C184.6,0,148,0,111,0C73.8,0,37,0,18,0L0,0Z"></path></svg>